<svg xmlns="http://www.w3.org/2000/svg" width="16" height="16" viewBox="0 0 16 16">
  <g id="carbon:phone-filled" transform="translate(0)">
    <path id="Vector" d="M10.667,11.371l1.378-1.378a1.347,1.347,0,0,1,1.439-.3l1.679.671A1.341,1.341,0,0,1,16,11.6v3.077A1.335,1.335,0,0,1,14.6,16C2.831,15.266.457,5.3.008,1.483A1.335,1.335,0,0,1,1.343,0H4.314a1.329,1.329,0,0,1,1.23.837l.67,1.68a1.329,1.329,0,0,1-.289,1.44L4.547,5.335S5.341,10.707,10.667,11.371Z" transform="translate(0 0)" fill="#fff"/>
  </g>
</svg>
