<svg xmlns="http://www.w3.org/2000/svg" width="84.513" height="65" viewBox="0 0 84.513 65">
  <g id="Icon" transform="translate(-590 -2447)">
    <g id="Group">
      <g id="Group-2" data-name="Group">
        <path id="Vector" d="M79.893,65H4.62A4.672,4.672,0,0,1,0,60.287V4.713A4.672,4.672,0,0,1,4.62,0H79.888a4.672,4.672,0,0,1,4.62,4.713V60.287A4.666,4.666,0,0,1,79.893,65ZM4.62,2.694A2,2,0,0,0,2.641,4.713V60.287A2,2,0,0,0,4.62,62.306H79.888a2,2,0,0,0,1.979-2.018V4.713a2,2,0,0,0-1.979-2.018Z" transform="translate(590 2447)" fill="#686868"/>
        <path id="Vector-2" data-name="Vector" d="M83.192,2.694H1.321A1.335,1.335,0,0,1,0,1.347,1.335,1.335,0,0,1,1.321,0H83.192a1.335,1.335,0,0,1,1.321,1.347A1.335,1.335,0,0,1,83.192,2.694Z" transform="translate(590 2458.079)" fill="#686868"/>
        <path id="Vector-3" data-name="Vector" d="M34.168,2.694H1.321A1.335,1.335,0,0,1,0,1.347,1.335,1.335,0,0,1,1.321,0H34.168a1.335,1.335,0,0,1,1.321,1.347A1.335,1.335,0,0,1,34.168,2.694Z" transform="translate(631.589 2452.537)" fill="#686868"/>
        <g id="Group-3" data-name="Group">
          <g id="Group-4" data-name="Group">
            <path id="Vector-4" data-name="Vector" d="M6.8,16.286H1.321A1.335,1.335,0,0,1,0,14.939V1.347A1.335,1.335,0,0,1,1.321,0H6.8A1.335,1.335,0,0,1,8.121,1.347V14.939A1.338,1.338,0,0,1,6.8,16.286ZM2.641,13.592H5.48V2.694H2.641Z" transform="translate(607.277 2487.708)" fill="#686868"/>
            <path id="Vector-5" data-name="Vector" d="M6.8,12.129H1.321A1.335,1.335,0,0,1,0,10.782V1.347A1.335,1.335,0,0,1,1.321,0H6.8A1.335,1.335,0,0,1,8.121,1.347v9.435A1.335,1.335,0,0,1,6.8,12.129ZM2.641,9.435H5.48V2.694H2.641Z" transform="translate(617.734 2491.865)" fill="#686868"/>
            <path id="Vector-6" data-name="Vector" d="M6.8,20.884H1.321A1.335,1.335,0,0,1,0,19.536V1.347A1.335,1.335,0,0,1,1.321,0H6.8A1.335,1.335,0,0,1,8.121,1.347V19.536A1.335,1.335,0,0,1,6.8,20.884ZM2.641,18.189H5.48V2.694H2.641Z" transform="translate(628.196 2483.11)" fill="#686868"/>
            <path id="Vector-7" data-name="Vector" d="M6.8,13.16H1.321A1.335,1.335,0,0,1,0,11.813V1.347A1.335,1.335,0,0,1,1.321,0H6.8A1.335,1.335,0,0,1,8.121,1.347V11.813A1.335,1.335,0,0,1,6.8,13.16ZM2.646,10.466H5.485V2.694H2.646Z" transform="translate(638.653 2490.834)" fill="#686868"/>
            <path id="Vector-8" data-name="Vector" d="M6.8,23.362H1.321A1.335,1.335,0,0,1,0,22.015V1.347A1.335,1.335,0,0,1,1.321,0H6.8A1.335,1.335,0,0,1,8.121,1.347V22.015A1.335,1.335,0,0,1,6.8,23.362ZM2.641,20.668H5.48V2.69H2.641Z" transform="translate(649.115 2480.632)" fill="#686868"/>
          </g>
          <g id="Group-5" data-name="Group">
            <path id="Vector-9" data-name="Vector" d="M8.124,5.712A1.382,1.382,0,0,1,7.6,5.6L.792,2.582A1.358,1.358,0,0,1,.11.808a1.311,1.311,0,0,1,1.739-.7l6.805,3.02a1.358,1.358,0,0,1,.681,1.774A1.325,1.325,0,0,1,8.124,5.712Z" transform="translate(611.406 2477.293)" fill="#686868"/>
            <g id="Group-6" data-name="Group">
              <path id="Vector-10" data-name="Vector" d="M1.32,9.784a1.308,1.308,0,0,1-.973-.436,1.367,1.367,0,0,1,.08-1.9L8.008.354A1.3,1.3,0,0,1,9.874.436a1.367,1.367,0,0,1-.08,1.9L2.213,9.43A1.313,1.313,0,0,1,1.32,9.784Z" transform="translate(621.767 2472.616)" fill="#686868"/>
              <path id="Vector-11" data-name="Vector" d="M1.32,11.217a1.294,1.294,0,0,1-.9-.364,1.367,1.367,0,0,1-.061-1.9L8.172.426A1.3,1.3,0,0,1,10.038.363a1.367,1.367,0,0,1,.061,1.9L2.283,10.791A1.3,1.3,0,0,1,1.32,11.217Z" transform="translate(643.161 2469.879)" fill="#686868"/>
              <path id="Vector-12" data-name="Vector" d="M8.734,8.808a1.292,1.292,0,0,1-.832-.3L.49,2.394A1.366,1.366,0,0,1,.293.5,1.3,1.3,0,0,1,2.149.3L9.561,6.411a1.366,1.366,0,0,1,.2,1.894A1.283,1.283,0,0,1,8.734,8.808Z" transform="translate(632.603 2472.509)" fill="#686868"/>
              <path id="Vector-13" data-name="Vector" d="M3.473,7.086A3.512,3.512,0,0,1,0,3.543,3.513,3.513,0,0,1,3.473,0,3.512,3.512,0,0,1,6.946,3.543,3.519,3.519,0,0,1,3.473,7.086Zm0-4.392a.849.849,0,1,0,.832.849A.842.842,0,0,0,3.473,2.694Z" transform="translate(607.277 2474.217)" fill="#686868"/>
              <path id="Vector-14" data-name="Vector" d="M3.473,7.086A3.512,3.512,0,0,1,0,3.543,3.512,3.512,0,0,1,3.473,0,3.512,3.512,0,0,1,6.946,3.543,3.519,3.519,0,0,1,3.473,7.086Zm0-4.392a.849.849,0,1,0,.832.849A.842.842,0,0,0,3.473,2.694Z" transform="translate(618.03 2478.992)" fill="#686868"/>
              <path id="Vector-15" data-name="Vector" d="M3.473,7.086A3.512,3.512,0,0,1,0,3.543,3.512,3.512,0,0,1,3.473,0,3.512,3.512,0,0,1,6.946,3.543,3.512,3.512,0,0,1,3.473,7.086Zm0-4.387a.849.849,0,1,0,.832.849A.842.842,0,0,0,3.473,2.7Z" transform="translate(628.783 2468.934)" fill="#686868"/>
              <path id="Vector-16" data-name="Vector" d="M3.473,7.086A3.512,3.512,0,0,1,0,3.543,3.512,3.512,0,0,1,3.473,0,3.512,3.512,0,0,1,6.946,3.543,3.512,3.512,0,0,1,3.473,7.086Zm0-4.387a.849.849,0,1,0,.832.849A.842.842,0,0,0,3.473,2.7Z" transform="translate(639.537 2477.808)" fill="#686868"/>
              <path id="Vector-17" data-name="Vector" d="M3.473,7.086A3.512,3.512,0,0,1,0,3.543,3.512,3.512,0,0,1,3.473,0,3.512,3.512,0,0,1,6.946,3.543,3.512,3.512,0,0,1,3.473,7.086Zm0-4.387a.849.849,0,1,0,.832.849A.842.842,0,0,0,3.473,2.7Z" transform="translate(650.29 2466.081)" fill="#686868"/>
            </g>
          </g>
        </g>
      </g>
      <g id="Group-7" data-name="Group">
        <path id="Vector-18" data-name="Vector" d="M3.248,1.659A1.642,1.642,0,0,0,1.626,0,1.643,1.643,0,0,0,0,1.659,1.639,1.639,0,0,0,1.626,3.313,1.635,1.635,0,0,0,3.248,1.659Z" transform="translate(598.756 2452.226)" fill="#686868"/>
        <path id="Vector-19" data-name="Vector" d="M3.248,1.659A1.643,1.643,0,0,0,1.621,0,1.639,1.639,0,0,0,0,1.659,1.638,1.638,0,0,0,1.621,3.313,1.636,1.636,0,0,0,3.248,1.659Z" transform="translate(605.552 2452.226)" fill="#686868"/>
        <path id="Vector-20" data-name="Vector" d="M3.248,1.659A1.643,1.643,0,0,0,1.621,0,1.639,1.639,0,0,0,0,1.659,1.638,1.638,0,0,0,1.621,3.313,1.633,1.633,0,0,0,3.248,1.659Z" transform="translate(612.343 2452.226)" fill="#686868"/>
      </g>
    </g>
  </g>
</svg>
