<svg xmlns="http://www.w3.org/2000/svg" width="96" height="65" viewBox="0 0 96 65">
  <g id="Group_335" data-name="Group 335" transform="translate(-190 -2447)">
    <path id="Vector" d="M87.784,12.894H8.211A8.271,8.271,0,0,1,0,4.581V1.518A1.51,1.51,0,0,1,1.5,0h93A1.51,1.51,0,0,1,96,1.518V4.581A8.272,8.272,0,0,1,87.784,12.894ZM3,3.041V4.586A5.254,5.254,0,0,0,8.216,9.863H87.789A5.254,5.254,0,0,0,93,4.586V3.041Z" transform="translate(190 2499.106)" fill="#fff"/>
    <path id="Vector-2" data-name="Vector" d="M81.623,55.146a1.51,1.51,0,0,1-1.5-1.518V3.036H3V53.628a1.51,1.51,0,0,1-1.5,1.518A1.51,1.51,0,0,1,0,53.628V1.518A1.51,1.51,0,0,1,1.5,0H81.623a1.51,1.51,0,0,1,1.5,1.518v52.11A1.51,1.51,0,0,1,81.623,55.146Z" transform="translate(196.438 2447)" fill="#fff"/>
    <path id="Vector-3" data-name="Vector" d="M69.125,42.5H1.5A1.51,1.51,0,0,1,0,40.977V1.518A1.51,1.51,0,0,1,1.5,0H69.125a1.51,1.51,0,0,1,1.5,1.518V40.977A1.507,1.507,0,0,1,69.125,42.5ZM3,39.459H67.625V3.036H3Z" transform="translate(202.685 2453.324)" fill="#fff"/>
    <path id="Vector-4" data-name="Vector" d="M12.749,3.036H1.5A1.518,1.518,0,0,1,1.5,0H12.749a1.51,1.51,0,0,1,1.5,1.518A1.507,1.507,0,0,1,12.749,3.036Z" transform="translate(230.873 2504.038)" fill="#fff"/>
    <path id="Vector-5" data-name="Vector" d="M6.545,13.245A6.623,6.623,0,0,1,6.545,0a6.623,6.623,0,0,1,0,13.245Zm0-10.209A3.587,3.587,0,1,0,10.09,6.622,3.571,3.571,0,0,0,6.545,3.036Z" transform="translate(231.455 2467.948)" fill="#fff"/>
    <path id="Vector-6" data-name="Vector" d="M16.721,29.472H12.4a1.51,1.51,0,0,1-1.5-1.518V25.561a11.735,11.735,0,0,1-1.319-.551L7.912,26.7a1.483,1.483,0,0,1-2.119,0l-3.054-3.09A1.521,1.521,0,0,1,2.3,22.536a1.544,1.544,0,0,1,.438-1.075L4.41,19.77a11.081,11.081,0,0,1-.545-1.334H1.5A1.51,1.51,0,0,1,0,16.918v-4.37A1.51,1.51,0,0,1,1.5,11.03H3.865A12.03,12.03,0,0,1,4.41,9.7L2.739,8.005a1.525,1.525,0,0,1,0-2.144l3.054-3.09a1.483,1.483,0,0,1,2.119,0L9.583,4.462A10.809,10.809,0,0,1,10.9,3.911V1.518A1.51,1.51,0,0,1,12.4,0h4.319a1.51,1.51,0,0,1,1.5,1.518V3.911a11.734,11.734,0,0,1,1.319.551l1.671-1.691a1.485,1.485,0,0,1,1.062-.443,1.508,1.508,0,0,1,1.062.443l3.054,3.09a1.525,1.525,0,0,1,0,2.144L24.718,9.7a11.081,11.081,0,0,1,.545,1.334h2.365a1.51,1.51,0,0,1,1.5,1.518v4.37a1.51,1.51,0,0,1-1.5,1.518H25.263a12.03,12.03,0,0,1-.545,1.334l1.671,1.691a1.525,1.525,0,0,1,0,2.144L23.335,26.7a1.483,1.483,0,0,1-2.119,0L19.545,25a10.809,10.809,0,0,1-1.319.551v2.393A1.516,1.516,0,0,1,16.721,29.472ZM13.9,26.436h1.319v-2.02a1.516,1.516,0,0,1,1.169-1.48,8.259,8.259,0,0,0,2.605-1.091,1.489,1.489,0,0,1,1.863.211l1.415,1.431.934-.945L21.792,21.11a1.534,1.534,0,0,1-.208-1.885,8.465,8.465,0,0,0,1.078-2.636,1.506,1.506,0,0,1,1.463-1.183h2V14.071h-2a1.506,1.506,0,0,1-1.463-1.183,8.465,8.465,0,0,0-1.078-2.636,1.534,1.534,0,0,1,.208-1.885l1.415-1.431-.934-.945L20.858,7.422a1.489,1.489,0,0,1-1.863.211A8.259,8.259,0,0,0,16.39,6.541a1.516,1.516,0,0,1-1.169-1.48V3.041H13.9v2.02a1.516,1.516,0,0,1-1.169,1.48,8.259,8.259,0,0,0-2.605,1.091,1.489,1.489,0,0,1-1.863-.211L6.849,5.99l-.934.945L7.33,8.367a1.534,1.534,0,0,1,.208,1.885A8.465,8.465,0,0,0,6.46,12.888,1.506,1.506,0,0,1,5,14.071H3v1.334H5A1.506,1.506,0,0,1,6.46,16.589a8.465,8.465,0,0,0,1.078,2.636A1.534,1.534,0,0,1,7.33,21.11L5.915,22.541l.934.945,1.415-1.431a1.489,1.489,0,0,1,1.863-.211,8.259,8.259,0,0,0,2.605,1.091,1.516,1.516,0,0,1,1.169,1.48Z" transform="translate(223.436 2459.841)" fill="#fff"/>
  </g>
</svg>
