<svg xmlns="http://www.w3.org/2000/svg" width="20" height="14.109" viewBox="0 0 20 14.109">
  <g id="dashicons:email-alt" transform="translate(0 -3.125)">
    <path id="Vector" d="M20,12.346V1.764A1.761,1.761,0,0,0,18.236,0H1.764A1.761,1.761,0,0,0,0,1.764V12.346a1.761,1.761,0,0,0,1.764,1.764H18.236A1.761,1.761,0,0,0,20,12.346ZM18.46,1.634a.645.645,0,0,1-.035.988L13.651,7l4.586,4.774a.455.455,0,0,1,.071.6.535.535,0,0,1-.658.059L12.51,8.042,9.994,10.335,7.49,8.042,2.352,12.428a.535.535,0,0,1-.658-.059.455.455,0,0,1,.071-.6L6.349,7,1.576,2.622a.645.645,0,0,1-.035-.988c.388-.388.788-.2,1.117.082L9.994,7.643l7.349-5.926c.329-.282.729-.47,1.117-.082Z" transform="translate(0 3.125)" fill="#fff"/>
  </g>
</svg>
