<svg xmlns="http://www.w3.org/2000/svg" width="84.513" height="65" viewBox="0 0 84.513 65">
  <g id="Icon" transform="translate(-990 -2447)">
    <g id="Group">
      <g id="Group-2" data-name="Group">
        <path id="Vector" d="M79.893,65H4.62A4.672,4.672,0,0,1,0,60.287V4.713A4.672,4.672,0,0,1,4.62,0H79.888a4.672,4.672,0,0,1,4.62,4.713V60.287A4.666,4.666,0,0,1,79.893,65ZM4.62,2.694A2,2,0,0,0,2.641,4.713V60.287A2,2,0,0,0,4.62,62.306H79.888a2,2,0,0,0,1.979-2.018V4.713a2,2,0,0,0-1.979-2.018Z" transform="translate(990 2447)" fill="#686868"/>
        <path id="Vector-2" data-name="Vector" d="M83.192,2.694H1.321A1.335,1.335,0,0,1,0,1.347,1.335,1.335,0,0,1,1.321,0H83.192a1.335,1.335,0,0,1,1.321,1.347A1.335,1.335,0,0,1,83.192,2.694Z" transform="translate(990 2458.079)" fill="#686868"/>
        <path id="Vector-3" data-name="Vector" d="M34.168,2.694H1.321A1.335,1.335,0,0,1,0,1.347,1.335,1.335,0,0,1,1.321,0H34.168a1.335,1.335,0,0,1,1.321,1.347A1.332,1.332,0,0,1,34.168,2.694Z" transform="translate(1031.589 2452.537)" fill="#686868"/>
        <g id="Group-3" data-name="Group">
          <g id="Group-4" data-name="Group">
            <path id="Vector-4" data-name="Vector" d="M1.321,20.745A1.335,1.335,0,0,1,0,19.4V1.347A1.335,1.335,0,0,1,1.321,0,1.335,1.335,0,0,1,2.641,1.347V19.4A1.335,1.335,0,0,1,1.321,20.745Z" transform="translate(1030.936 2474.667)" fill="#686868"/>
            <g id="Group-5" data-name="Group">
              <path id="Vector-5" data-name="Vector" d="M6.609,9.083H6.59a1.318,1.318,0,0,1-1.123-.638L.311,2.218A1.369,1.369,0,0,1,.466.319,1.305,1.305,0,0,1,2.328.477L6.6,5.631,10.862.477A1.3,1.3,0,0,1,12.724.319a1.36,1.36,0,0,1,.155,1.9L7.723,8.445A1.291,1.291,0,0,1,6.609,9.083Z" transform="translate(1025.657 2486.329)" fill="#686868"/>
            </g>
          </g>
          <path id="Vector-6" data-name="Vector" d="M17.441,35.587A17.157,17.157,0,0,1,5.109,30.376a18.043,18.043,0,0,1,0-25.16,17.192,17.192,0,0,1,24.665,0,18.043,18.043,0,0,1,0,25.16A17.142,17.142,0,0,1,17.441,35.587Zm0-32.893a14.97,14.97,0,0,0-14.8,15.1,14.97,14.97,0,0,0,14.8,15.1,14.97,14.97,0,0,0,14.8-15.1A14.97,14.97,0,0,0,17.441,2.694Z" transform="translate(1014.815 2467.246)" fill="#686868"/>
        </g>
      </g>
      <g id="Group-6" data-name="Group">
        <path id="Vector-7" data-name="Vector" d="M3.248,1.659A1.642,1.642,0,0,0,1.626,0,1.643,1.643,0,0,0,0,1.659,1.639,1.639,0,0,0,1.626,3.313,1.635,1.635,0,0,0,3.248,1.659Z" transform="translate(998.756 2452.226)" fill="#686868"/>
        <path id="Vector-8" data-name="Vector" d="M3.248,1.659A1.643,1.643,0,0,0,1.621,0,1.639,1.639,0,0,0,0,1.659,1.638,1.638,0,0,0,1.621,3.313,1.636,1.636,0,0,0,3.248,1.659Z" transform="translate(1005.552 2452.226)" fill="#686868"/>
        <path id="Vector-9" data-name="Vector" d="M3.248,1.659A1.643,1.643,0,0,0,1.621,0,1.639,1.639,0,0,0,0,1.659,1.638,1.638,0,0,0,1.621,3.313,1.633,1.633,0,0,0,3.248,1.659Z" transform="translate(1012.343 2452.226)" fill="#686868"/>
      </g>
    </g>
  </g>
</svg>
