<svg id="fa6-solid:business-time" xmlns="http://www.w3.org/2000/svg" width="24" height="19.2" viewBox="0 0 24 19.2">
  <path id="Vector" d="M18.6,8.4A5.4,5.4,0,1,0,24,13.8,5.4,5.4,0,0,0,18.6,8.4Zm1.8,6H18.366A.367.367,0,0,1,18,14.036V11.4a.6.6,0,0,1,1.2,0v1.8h1.2a.6.6,0,1,1,0,1.2ZM12,13.2H7.8a.6.6,0,0,1-.6-.6V10.8H0v5.4A1.846,1.846,0,0,0,1.8,18H13.508A6.58,6.58,0,0,1,12,13.8C12,13.6,12.019,13.4,12,13.2Zm6.6-6c.2,0,.4.012.6.03V5.4a1.846,1.846,0,0,0-1.8-1.8h-3V1.8A1.846,1.846,0,0,0,12.6,0h-6A1.846,1.846,0,0,0,4.8,1.8V3.6h-3A1.846,1.846,0,0,0,0,5.4V9.6H13.508A6.586,6.586,0,0,1,18.6,7.2Zm-6-3.6h-6V1.8h6Z" fill="#fff"/>
</svg>
