<svg xmlns="http://www.w3.org/2000/svg" width="22.5" height="22.5" viewBox="0 0 22.5 22.5">
  <g id="flat-color-icons:google" transform="translate(-2.25 -2.25)">
    <path id="Vector" d="M22.281,9.047h-.906V9H11.25v4.5h6.358a6.755,6.755,0,1,1-1.88-7.291L18.91,3.027A11.238,11.238,0,1,0,22.5,11.25,11.327,11.327,0,0,0,22.281,9.047Z" transform="translate(2.25 2.25)" fill="#fff"/>
    <path id="Vector-2" data-name="Vector" d="M0,6.014,3.7,8.724A6.736,6.736,0,0,1,14.431,6.209l3.182-3.182A11.228,11.228,0,0,0,0,6.014Z" transform="translate(3.547 2.25)" fill="#fff"/>
    <path id="Vector-3" data-name="Vector" d="M10.015,8.97a11.2,11.2,0,0,0,7.543-2.921L14.076,3.1A6.7,6.7,0,0,1,10.015,4.47,6.747,6.747,0,0,1,3.669,0L0,2.827A11.241,11.241,0,0,0,10.015,8.97Z" transform="translate(3.485 15.78)" fill="#fff"/>
    <path id="Vector-4" data-name="Vector" d="M11.031.047h-.906V0H0V4.5H6.358a6.772,6.772,0,0,1-2.3,3.134h0l3.482,2.946A10.883,10.883,0,0,0,11.25,2.25,11.327,11.327,0,0,0,11.031.047Z" transform="translate(13.5 11.25)" fill="#fff"/>
  </g>
</svg>
