<svg xmlns="http://www.w3.org/2000/svg" width="36" height="36" viewBox="0 0 36 36">
  <g id="mdi:auto-fix" transform="translate(-1.496)">
    <path id="Vector" d="M11.146,6.171,6.861,8.57l2.4-4.285L6.861,0l4.285,2.4L15.431,0l-2.4,4.285,2.4,4.285Zm20.569,16.8L36,20.569l-2.4,4.285L36,29.139l-4.285-2.4-4.285,2.4,2.4-4.285-2.4-4.285ZM36,0,33.6,4.285,36,8.57l-4.285-2.4L27.43,8.57l2.4-4.285L27.43,0l4.285,2.4ZM21.156,18.478,25.338,14.3,21.7,10.662l-4.182,4.182,3.634,3.634Zm1.766-9.41,4.011,4.011a1.707,1.707,0,0,1,0,2.417l-20,20a1.707,1.707,0,0,1-2.417,0L.5,31.488a1.707,1.707,0,0,1,0-2.417l20-20a1.707,1.707,0,0,1,2.417,0Z" transform="translate(1.496)" fill="#fff"/>
  </g>
</svg>
