<svg xmlns="http://www.w3.org/2000/svg" width="38.047" height="36.333" viewBox="0 0 38.047 36.333">
  <g id="ant-design:star-filled" transform="translate(-3.977 -3.068)">
    <path id="Vector" d="M36.817,12.794,25.411,11.136,20.313.8a1.438,1.438,0,0,0-2.579,0l-5.1,10.337L1.23,12.794a1.438,1.438,0,0,0-.8,2.453l8.252,8.046L6.737,34.653a1.435,1.435,0,0,0,2.084,1.514l10.2-5.364,10.2,5.364a1.437,1.437,0,0,0,2.084-1.514L29.36,23.292l8.252-8.046a1.44,1.44,0,0,0-.8-2.453Z" transform="translate(3.977 3.068)" fill="#ffc327"/>
  </g>
</svg>
