<svg xmlns="http://www.w3.org/2000/svg" width="25" height="20.904" viewBox="0 0 25 20.904">
  <g id="logos:twitter" transform="translate(0 -0.083)">
    <path id="Vector" d="M25,2.475a10.034,10.034,0,0,1-2.946.831A5.268,5.268,0,0,0,24.309.386a10.1,10.1,0,0,1-3.257,1.281A5.057,5.057,0,0,0,17.308,0a5.2,5.2,0,0,0-5.129,5.277,5.447,5.447,0,0,0,.133,1.2A14.431,14.431,0,0,1,1.74.966a5.37,5.37,0,0,0-.694,2.653A5.317,5.317,0,0,0,3.328,8.012,5,5,0,0,1,1,7.351c0,.022,0,.044,0,.066a5.245,5.245,0,0,0,4.114,5.175,5,5,0,0,1-2.316.09,5.155,5.155,0,0,0,4.791,3.665A10.121,10.121,0,0,1,0,18.533,14.223,14.223,0,0,0,7.862,20.9c9.434,0,14.593-8.041,14.593-15.015q0-.343-.015-.683A10.6,10.6,0,0,0,25,2.475Z" transform="translate(0 0.083)" fill="#fff"/>
  </g>
</svg>
