<svg xmlns="http://www.w3.org/2000/svg" width="24" height="24" viewBox="0 0 24 24">
  <g id="logos:linkedin-icon" transform="translate(0.001 0)">
    <path id="Vector" d="M20.449,20.449H16.893V14.88c0-1.328-.024-3.037-1.85-3.037-1.852,0-2.136,1.447-2.136,2.941v5.665H9.352V9h3.414v1.565h.048a3.741,3.741,0,0,1,3.368-1.85c3.6,0,4.269,2.371,4.269,5.455l0,6.282ZM5.34,7.432a2.064,2.064,0,1,1,1.459-.6,2.064,2.064,0,0,1-1.459.6ZM7.118,20.45H3.558V9h3.56V20.449ZM22.222,0H1.771A1.751,1.751,0,0,0,0,1.732V22.268A1.753,1.753,0,0,0,1.771,24H22.222A1.756,1.756,0,0,0,24,22.268V1.73A1.755,1.755,0,0,0,22.222,0" transform="translate(-0.001 -0.001)" fill="#fff"/>
  </g>
</svg>
