<svg id="fluent:chat-help-24-filled" xmlns="http://www.w3.org/2000/svg" width="36" height="36.004" viewBox="0 0 36 36.004">
  <path id="Vector" d="M18,0A18,18,0,1,1,9.641,33.944L1.919,35.955A1.53,1.53,0,0,1,.052,34.09l2.009-7.72A18.005,18.005,0,0,1,18,0Zm0,24.3a1.8,1.8,0,1,0,1.273.527A1.8,1.8,0,0,0,18,24.3ZM18,8.55a4.95,4.95,0,0,0-4.95,4.95,1.35,1.35,0,0,0,2.687.184l.025-.414a2.25,2.25,0,0,1,4.487.23,2.958,2.958,0,0,1-1.161,2.4l-.547.558A5.379,5.379,0,0,0,16.65,20.7a1.35,1.35,0,0,0,2.7,0,2.958,2.958,0,0,1,1.161-2.4l.547-.558A5.379,5.379,0,0,0,22.95,13.5,4.95,4.95,0,0,0,18,8.55Z" transform="translate(0)" fill="#fff"/>
</svg>
