<svg xmlns="http://www.w3.org/2000/svg" width="30" height="26.25" viewBox="0 0 30 26.25">
  <g id="heroicons-solid:server" transform="translate(0 -1.5)">
    <path id="Vector" d="M0,3.75A3.75,3.75,0,0,1,3.75,0h22.5A3.75,3.75,0,0,1,30,3.75V7.5a3.75,3.75,0,0,1-3.75,3.75H3.75A3.75,3.75,0,0,1,0,7.5ZM26.25,5.625A1.875,1.875,0,1,1,25.7,4.3,1.875,1.875,0,0,1,26.25,5.625ZM0,18.75A3.75,3.75,0,0,1,3.75,15h22.5A3.75,3.75,0,0,1,30,18.75V22.5a3.75,3.75,0,0,1-3.75,3.75H3.75A3.75,3.75,0,0,1,0,22.5Zm26.25,1.875A1.875,1.875,0,1,1,25.7,19.3a1.875,1.875,0,0,1,.549,1.326Z" transform="translate(0 1.5)" fill="#fff"/>
  </g>
</svg>
