<svg xmlns="http://www.w3.org/2000/svg" width="29.167" height="29.167" viewBox="0 0 29.167 29.167">
  <g id="clarity:network-globe-solid" transform="translate(-2.917 -2.917)">
    <g id="Group_283" data-name="Group 283">
      <path id="Vector" d="M.489.948a2.344,2.344,0,0,1-.049.974A2.344,2.344,0,0,1,0,2.792,16.665,16.665,0,0,0,5.134,8.24c.354.24.719.448,1.041.656A2.374,2.374,0,0,1,8.862,8.3,17.606,17.606,0,0,0,12.1,1.011,17.7,17.7,0,0,0,.489.948Z" transform="translate(13.852 10.166)" fill="#fff"/>
      <path id="Vector-2" data-name="Vector" d="M14.58,0A14.582,14.582,0,0,0,0,14.583a8.761,8.761,0,0,0,.073,1.385A14.579,14.579,0,1,0,14.58,0ZM25.359,19.885a18.127,18.127,0,0,1-4.5-.583,2.384,2.384,0,0,1-3.124.646,19.192,19.192,0,0,1-7.29,3.646A2.437,2.437,0,0,1,8.81,25.458l-.3.063A12.425,12.425,0,0,1,4.978,22.6h.687a2.426,2.426,0,0,1,4.551-.6,17.64,17.64,0,0,0,6.478-3.25,2.417,2.417,0,0,1-.187-1.219c-.437-.25-.875-.51-1.3-.792a18.259,18.259,0,0,1-5.572-5.833,2.405,2.405,0,0,1-2.374-.656,28.444,28.444,0,0,0-5.207,4.938v-.594a12.5,12.5,0,0,1,.146-1.8A19.528,19.528,0,0,1,6.571,8.833,2.375,2.375,0,0,1,7.717,6.49c-.125-.448-.25-.9-.344-1.354a1.89,1.89,0,0,0-.115-.667,12.5,12.5,0,0,1,1.427-.906c.1.615.146.937.219,1.26s.208.885.333,1.323H9.5a2.426,2.426,0,0,1,1.177.656,19.272,19.272,0,0,1,12.612-.073V5.688A12.5,12.5,0,0,1,26.015,9.7q-.76-.448-1.541-.813a19.169,19.169,0,0,1-3.53,7.677,2.428,2.428,0,0,1,.344,1.24,22.906,22.906,0,0,0,5.207.469,12.377,12.377,0,0,1-.635,1.594Z" transform="translate(2.917 2.917)" fill="#fff"/>
    </g>
  </g>
</svg>
