<svg xmlns="http://www.w3.org/2000/svg" width="25.197" height="36" viewBox="0 0 25.197 36">
  <g id="eos-icons:trusted-organization" transform="translate(-6)">
    <path id="Vector" d="M25.2,12.6A12.6,12.6,0,1,0,5.446,22.97L0,32.4l4.06.167L6.234,36l6.238-10.806c.043,0,.083.007.126.007s.083-.005.126-.007L18.962,36l2.217-3.358L25.2,32.4,19.751,22.97A12.58,12.58,0,0,0,25.2,12.6Zm-21.6,0a9,9,0,1,1,2.636,6.363A9,9,0,0,1,3.6,12.6Z" transform="translate(6)" fill="#fff"/>
    <path id="Vector-2" data-name="Vector" d="M10.8,5.4A5.4,5.4,0,1,1,5.4,0,5.4,5.4,0,0,1,10.8,5.4Z" transform="translate(13.199 7.204)" fill="#fff"/>
  </g>
</svg>
