<?xml version="1.0" standalone="no"?>
<!DOCTYPE svg PUBLIC "-//W3C//DTD SVG 20010904//EN"
 "http://www.w3.org/TR/2001/REC-SVG-20010904/DTD/svg10.dtd">
<svg version="1.0" xmlns="http://www.w3.org/2000/svg"
 width="250.000000pt" height="250.000000pt" viewBox="0 0 250.000000 250.000000"
 preserveAspectRatio="xMidYMid meet">
<metadata>
Created by potrace 1.14, written by Peter Selinger 2001-2017
</metadata>
<g transform="translate(0.000000,250.000000) scale(0.100000,-0.100000)"
fill="#000000" stroke="none">
<path d="M159 2386 c-56 -20 -96 -53 -126 -104 l-28 -47 -3 -332 -3 -332 143
-3 c79 -2 191 -2 249 0 l106 3 108 252 c60 139 120 269 133 289 29 44 93 78
147 78 55 0 122 -35 149 -79 13 -20 81 -181 152 -359 l129 -324 34 74 c155
328 179 373 217 398 55 36 145 36 201 -2 35 -23 52 -49 117 -177 l76 -150 119
-3 c66 -2 187 -2 271 0 l151 3 -3 333 -3 333 -30 49 c-19 30 -49 60 -79 79
l-49 30 -1071 2 c-859 2 -1078 0 -1107 -11z"/>
<path d="M850 2077 c-25 -13 -34 -32 -256 -542 l-30 -70 -259 -2 -260 -1 -22
-27 c-29 -34 -29 -67 1 -102 l24 -28 296 0 296 0 24 25 c13 14 65 122 116 240
51 118 95 218 99 222 3 4 80 -178 171 -405 90 -227 173 -429 184 -449 15 -28
28 -39 52 -44 64 -12 61 -16 213 311 21 44 66 142 102 218 35 75 66 137 69
137 3 0 30 -51 61 -113 42 -85 63 -116 85 -127 25 -13 81 -15 333 -15 l303 0
24 28 c13 16 24 39 24 53 0 33 -42 74 -77 75 -15 0 -140 1 -277 2 l-249 2 -82
165 c-46 91 -89 171 -96 177 -8 6 -29 13 -47 16 -44 7 -63 -13 -108 -110 -20
-42 -60 -128 -90 -191 -30 -63 -54 -116 -54 -117 0 -14 -114 -237 -117 -229
-31 91 -356 881 -365 890 -21 20 -61 25 -88 11z"/>
<path d="M825 1413 c-91 -215 -81 -211 -490 -211 -171 0 -316 -1 -322 -1 -17
-1 -18 -442 -1 -508 8 -32 25 -61 57 -94 70 -72 91 -75 454 -74 202 0 307 -3
307 -10 1 -22 2 -182 1 -216 l-1 -35 -92 1 c-105 2 -143 -11 -159 -52 -12 -33
4 -79 34 -95 29 -15 1245 -15 1274 0 30 16 46 62 34 95 -16 40 -54 53 -158 52
l-93 0 0 130 0 130 308 0 c362 -1 383 2 453 74 64 66 69 95 69 373 l0 233
-353 0 -352 0 -38 24 c-21 12 -49 39 -62 59 l-24 36 -52 -110 c-164 -350 -176
-371 -222 -398 -115 -68 -230 -13 -285 136 -13 34 -30 77 -37 93 -7 17 -43
107 -80 200 -37 94 -76 189 -86 212 -11 24 -19 47 -19 52 0 6 -4 12 -8 15 -4
2 -30 -47 -57 -111z m678 -892 c4 0 7 -58 7 -129 l0 -127 -260 0 -260 0 0 127
c0 78 4 128 10 130 10 3 484 2 503 -1z"/>
</g>
</svg>
